<svg width="24" height="24" viewBox="0 0 24 24" fill="none" xmlns="http://www.w3.org/2000/svg">
<mask id="mask0_1396_3384" style="mask-type:alpha" maskUnits="userSpaceOnUse" x="0" y="0" width="24" height="24">
<rect width="24" height="24" fill="#D9D9D9"/>
</mask>
<g mask="url(#mask0_1396_3384)">
<path d="M16.3462 11.3846V6.76922H17.3462V11.3846H16.3462ZM10.8077 16.8423C10.5064 16.6628 10.2644 16.4179 10.0817 16.1077C9.89903 15.7974 9.80768 15.4538 9.80768 15.0769V6.76922H10.8077V16.8423ZM11.9603 21C10.4457 21 9.16345 20.4684 8.11345 19.4052C7.06345 18.3421 6.53845 17.0531 6.53845 15.5385V6.8077C6.53845 5.75 6.90224 4.85096 7.6298 4.11057C8.35737 3.37019 9.25 3 10.3077 3C11.3654 3 12.258 3.37019 12.9856 4.11057C13.7131 4.85096 14.0769 5.75 14.0769 6.8077V14H13.0769V6.78845C13.0731 6.01153 12.806 5.35257 12.2756 4.81155C11.7453 4.27052 11.0893 4 10.3077 4C9.53232 4 8.87693 4.27372 8.34153 4.82115C7.80614 5.36858 7.53845 6.03077 7.53845 6.8077V15.5385C7.53462 16.7731 7.96219 17.8253 8.82115 18.6952C9.68014 19.5651 10.7269 20 11.9615 20C12.3319 20 12.6838 19.9587 13.0171 19.8759C13.3504 19.7933 13.6653 19.6692 13.9616 19.5039V20.6135C13.65 20.7468 13.326 20.8446 12.9894 20.9067C12.6529 20.9689 12.3099 21 11.9603 21ZM16.3462 20V17.3846H13.7308V16.3846H16.3462V13.7692H17.3462V16.3846H19.9616V17.3846H17.3462V20H16.3462Z" fill="black"/>
</g>
</svg>
