<svg width="24" height="24" viewBox="0 0 24 24" fill="none" xmlns="http://www.w3.org/2000/svg">
<mask id="mask0_1248_6066" style="mask-type:alpha" maskUnits="userSpaceOnUse" x="0" y="0" width="24" height="24">
<rect width="24" height="24" fill="#D9D9D9"/>
</mask>
<g mask="url(#mask0_1248_6066)">
<path d="M13.464 21C11.9349 21 10.6323 20.466 9.55631 19.3981C8.48028 18.3301 7.94226 17.0308 7.94226 15.5V14.9827C6.67559 14.8647 5.60893 14.3317 4.74226 13.3837C3.87559 12.4356 3.44226 11.3077 3.44226 10V4.5H6.44226V3.5H7.44226V6.5H6.44226V5.5H4.44226V10C4.44226 11.1 4.83393 12.0417 5.61726 12.825C6.40059 13.6083 7.34226 14 8.44226 14C9.54226 14 10.4839 13.6083 11.2673 12.825C12.0506 12.0417 12.4423 11.1 12.4423 10V5.5H10.4423V6.5H9.44226V3.5H10.4423V4.5H13.4423V10C13.4423 11.3077 13.0089 12.4356 12.1423 13.3837C11.2756 14.3317 10.2089 14.8647 8.94226 14.9827V15.5C8.94226 16.75 9.38164 17.8125 10.2604 18.6875C11.1391 19.5625 12.2062 20 13.4615 20C14.7115 20 15.774 19.5625 16.649 18.6875C17.524 17.8125 17.9615 16.75 17.9615 15.5V13.9404C17.4936 13.8301 17.1073 13.584 16.8028 13.2019C16.4984 12.8199 16.3461 12.3808 16.3461 11.8846C16.3461 11.297 16.552 10.7975 16.9638 10.3862C17.3755 9.97488 17.8755 9.76922 18.4638 9.76922C19.052 9.76922 19.5512 9.97488 19.9615 10.3862C20.3718 10.7975 20.5769 11.297 20.5769 11.8846C20.5769 12.3808 20.4246 12.8199 20.1202 13.2019C19.8157 13.584 19.4295 13.8301 18.9615 13.9404V15.5C18.9615 17.0308 18.4275 18.3301 17.3596 19.3981C16.2916 20.466 14.9931 21 13.464 21ZM18.4615 13C18.7705 13 19.0336 12.8913 19.2509 12.674C19.4682 12.4567 19.5769 12.1936 19.5769 11.8846C19.5769 11.5756 19.4682 11.3125 19.2509 11.0952C19.0336 10.8779 18.7705 10.7692 18.4615 10.7692C18.1525 10.7692 17.8894 10.8779 17.6721 11.0952C17.4548 11.3125 17.3461 11.5756 17.3461 11.8846C17.3461 12.1936 17.4548 12.4567 17.6721 12.674C17.8894 12.8913 18.1525 13 18.4615 13Z" fill="black"/>
</g>
</svg>
