<svg width="24" height="24" viewBox="0 0 24 24" fill="none" xmlns="http://www.w3.org/2000/svg">
<mask id="mask0_1849_7834" style="mask-type:alpha" maskUnits="userSpaceOnUse" x="0" y="0" width="24" height="24">
<rect width="24" height="24" fill="#D9D9D9"/>
</mask>
<g mask="url(#mask0_1849_7834)">
<path d="M17.3462 15.5385C17.3462 17.0532 16.8244 18.3421 15.7807 19.4053C14.7372 20.4684 13.461 21 11.952 21C10.443 21 9.16345 20.4684 8.11345 19.4053C7.06345 18.3421 6.53845 17.0532 6.53845 15.5385V6.80775C6.53845 5.75008 6.9022 4.851 7.6297 4.1105C8.35737 3.37017 9.25004 3 10.3077 3C11.3654 3 12.258 3.37017 12.9855 4.1105C13.7131 4.851 14.077 5.75008 14.077 6.80775V15.077C14.077 15.6642 13.872 16.1699 13.4622 16.5943C13.0525 17.0186 12.5532 17.2308 11.9642 17.2308C11.3752 17.2308 10.8685 17.0219 10.4442 16.6043C10.0199 16.1866 9.8077 15.6775 9.8077 15.077V6.76925H10.8077V15.077C10.8077 15.3962 10.917 15.6682 11.1355 15.8932C11.3541 16.1182 11.623 16.2308 11.9422 16.2308C12.2615 16.2308 12.5305 16.1182 12.749 15.8932C12.9676 15.6682 13.077 15.3962 13.077 15.077V6.7885C13.0731 6.0115 12.806 5.3525 12.2755 4.8115C11.7451 4.2705 11.0892 4 10.3077 4C9.5322 4 8.87679 4.27375 8.34145 4.82125C7.80612 5.36858 7.53845 6.03075 7.53845 6.80775V15.5385C7.53462 16.7732 7.9622 17.8254 8.8212 18.6953C9.68004 19.5651 10.726 20 11.959 20C13.1743 20 14.2074 19.5651 15.0582 18.6953C15.909 17.8254 16.3384 16.7732 16.3462 15.5385V6.76925H17.3462V15.5385Z" fill="black"/>
</g>
</svg>
