<svg width="24" height="24" viewBox="0 0 24 24" fill="none" xmlns="http://www.w3.org/2000/svg">
<mask id="mask0_1633_3553" style="mask-type:alpha" maskUnits="userSpaceOnUse" x="0" y="0" width="24" height="24">
<rect width="24" height="24" fill="#D9D9D9"/>
</mask>
<g mask="url(#mask0_1633_3553)">
<path d="M7.23082 16.2308C7.01287 16.2308 6.83018 16.1571 6.68274 16.0096C6.53529 15.8622 6.46157 15.6795 6.46157 15.4615V14.4615H18.2116L18.8462 15.0961V6H19.8462C20.0641 6 20.2468 6.07372 20.3943 6.22115C20.5417 6.36858 20.6154 6.55127 20.6154 6.76922V19.3077L17.5385 16.2308H7.23082ZM3.38464 15.5385V3.76922C3.38464 3.55127 3.45836 3.36858 3.60579 3.22115C3.75324 3.07372 3.93594 3 4.15389 3H16.077C16.2949 3 16.4776 3.07372 16.625 3.22115C16.7725 3.36858 16.8462 3.55127 16.8462 3.76922V11.6923C16.8462 11.9102 16.7725 12.0929 16.625 12.2404C16.4776 12.3878 16.2949 12.4615 16.077 12.4615H6.46157L3.38464 15.5385ZM15.8462 11.4615V4H4.38467V12.8461L5.76927 11.4615H15.8462Z" fill="black"/>
</g>
</svg>
