<svg width="24" height="24" viewBox="0 0 24 24" fill="none" xmlns="http://www.w3.org/2000/svg">
<path d="M2.40002 7.20002C2.40002 4.54906 4.54906 2.40002 7.20002 2.40002H16.8C19.451 2.40002 21.6 4.54906 21.6 7.20002V16.8C21.6 19.451 19.451 21.6 16.8 21.6H7.20002C4.54906 21.6 2.40002 19.451 2.40002 16.8V7.20002Z" fill="white"/>
<path fill-rule="evenodd" clip-rule="evenodd" d="M16.8 3.60002H7.20002C5.2118 3.60002 3.60002 5.2118 3.60002 7.20002V16.8C3.60002 18.7882 5.2118 20.4 7.20002 20.4H16.8C18.7882 20.4 20.4 18.7882 20.4 16.8V7.20002C20.4 5.2118 18.7882 3.60002 16.8 3.60002ZM7.20002 2.40002C4.54906 2.40002 2.40002 4.54906 2.40002 7.20002V16.8C2.40002 19.451 4.54906 21.6 7.20002 21.6H16.8C19.451 21.6 21.6 19.451 21.6 16.8V7.20002C21.6 4.54906 19.451 2.40002 16.8 2.40002H7.20002Z" fill="#43494E" fill-opacity="0.24"/>
</svg>
