<svg width="24" height="24" viewBox="0 0 24 24" fill="none" xmlns="http://www.w3.org/2000/svg">
<mask id="mask0_2111_8918" style="mask-type:alpha" maskUnits="userSpaceOnUse" x="0" y="0" width="24" height="24">
<rect width="24" height="24" fill="#D9D9D9"/>
</mask>
<g mask="url(#mask0_2111_8918)">
<path fill-rule="evenodd" clip-rule="evenodd" d="M18 10H6V11H18V10ZM5 9V12H19V9H5Z" fill="black"/>
<path fill-rule="evenodd" clip-rule="evenodd" d="M6 17V11H18V17L17 18V12H7V18L6 17Z" fill="black"/>
<path fill-rule="evenodd" clip-rule="evenodd" d="M12 6C12.5523 6 13 5.55228 13 5C13 4.44772 12.5523 4 12 4C11.4477 4 11 4.44772 11 5C11 5.55228 11.4477 6 12 6ZM12 7C13.1046 7 14 6.10457 14 5C14 3.89543 13.1046 3 12 3C10.8954 3 10 3.89543 10 5C10 6.10457 10.8954 7 12 7Z" fill="black"/>
<path fill-rule="evenodd" clip-rule="evenodd" d="M12 7C10.6938 7 9.58254 7.83481 9.17071 9H14.8293C14.4175 7.83481 13.3062 7 12 7ZM15.874 9C15.4299 7.27477 13.8638 6 12 6C10.1362 6 8.57006 7.27477 8.12602 9C8.04375 9.31962 8 9.6547 8 10H16C16 9.6547 15.9562 9.31962 15.874 9Z" fill="black"/>
<path fill-rule="evenodd" clip-rule="evenodd" d="M5 17C5.55228 17 6 16.5523 6 16C6 15.4477 5.55228 15 5 15C4.44772 15 4 15.4477 4 16C4 16.5523 4.44772 17 5 17ZM5 18C6.10457 18 7 17.1046 7 16C7 14.8954 6.10457 14 5 14C3.89543 14 3 14.8954 3 16C3 17.1046 3.89543 18 5 18Z" fill="black"/>
<path fill-rule="evenodd" clip-rule="evenodd" d="M5 18C3.69378 18 2.58254 18.8348 2.17071 20H7.82929C7.41746 18.8348 6.30622 18 5 18ZM8.87398 20C8.42994 18.2748 6.86384 17 5 17C3.13616 17 1.57006 18.2748 1.12602 20C1.04375 20.3196 1 20.6547 1 21H9C9 20.6547 8.95625 20.3196 8.87398 20Z" fill="black"/>
<path fill-rule="evenodd" clip-rule="evenodd" d="M12 17C12.5523 17 13 16.5523 13 16C13 15.4477 12.5523 15 12 15C11.4477 15 11 15.4477 11 16C11 16.5523 11.4477 17 12 17ZM12 18C13.1046 18 14 17.1046 14 16C14 14.8954 13.1046 14 12 14C10.8954 14 10 14.8954 10 16C10 17.1046 10.8954 18 12 18Z" fill="black"/>
<path fill-rule="evenodd" clip-rule="evenodd" d="M12 18C10.6938 18 9.58254 18.8348 9.17071 20H14.8293C14.4175 18.8348 13.3062 18 12 18ZM15.874 20C15.4299 18.2748 13.8638 17 12 17C10.1362 17 8.57006 18.2748 8.12602 20C8.04375 20.3196 8 20.6547 8 21H16C16 20.6547 15.9562 20.3196 15.874 20Z" fill="black"/>
<path fill-rule="evenodd" clip-rule="evenodd" d="M19 17C19.5523 17 20 16.5523 20 16C20 15.4477 19.5523 15 19 15C18.4477 15 18 15.4477 18 16C18 16.5523 18.4477 17 19 17ZM19 18C20.1046 18 21 17.1046 21 16C21 14.8954 20.1046 14 19 14C17.8954 14 17 14.8954 17 16C17 17.1046 17.8954 18 19 18Z" fill="black"/>
<path fill-rule="evenodd" clip-rule="evenodd" d="M19 18C17.6938 18 16.5825 18.8348 16.1707 20H21.8293C21.4175 18.8348 20.3062 18 19 18ZM22.874 20C22.4299 18.2748 20.8638 17 19 17C17.1362 17 15.5701 18.2748 15.126 20C15.0438 20.3196 15 20.6547 15 21H23C23 20.6547 22.9562 20.3196 22.874 20Z" fill="black"/>
</g>
</svg>
