<svg width="24" height="24" viewBox="0 0 24 24" fill="none" xmlns="http://www.w3.org/2000/svg">
<mask id="mask0_1526_6000" style="mask-type:alpha" maskUnits="userSpaceOnUse" x="0" y="0" width="24" height="24">
<rect width="24" height="24" fill="#D9D9D9"/>
</mask>
<g mask="url(#mask0_1526_6000)">
<path d="M9.11538 17C8.65513 17 8.27083 16.8458 7.9625 16.5375C7.65417 16.2292 7.5 15.8449 7.5 15.3846V4.61537C7.5 4.15512 7.65417 3.77083 7.9625 3.4625C8.27083 3.15417 8.65513 3 9.11538 3H16.8846C17.3449 3 17.7292 3.15417 18.0375 3.4625C18.3458 3.77083 18.5 4.15512 18.5 4.61537V15.3846C18.5 15.8449 18.3458 16.2292 18.0375 16.5375C17.7292 16.8458 17.3449 17 16.8846 17H9.11538ZM9.11538 16H16.8846C17.0385 16 17.1795 15.9359 17.3077 15.8077C17.4359 15.6795 17.5 15.5385 17.5 15.3846V4.61537C17.5 4.46154 17.4359 4.32052 17.3077 4.1923C17.1795 4.0641 17.0385 4 16.8846 4H9.11538C8.96154 4 8.82052 4.0641 8.6923 4.1923C8.5641 4.32052 8.5 4.46154 8.5 4.61537V15.3846C8.5 15.5385 8.5641 15.6795 8.6923 15.8077C8.82052 15.9359 8.96154 16 9.11538 16ZM6.11538 20C5.65513 20 5.27083 19.8458 4.9625 19.5375C4.65417 19.2292 4.5 18.8449 4.5 18.3846V6.61537H5.5V18.3846C5.5 18.5385 5.5641 18.6795 5.6923 18.8077C5.8205 18.9359 5.96153 19 6.11538 19H14.8846V20H6.11538Z" fill="black"/>
</g>
</svg>
