<svg width="24" height="24" viewBox="0 0 24 24" fill="none" xmlns="http://www.w3.org/2000/svg">
<mask id="mask0_1337_7131" style="mask-type:alpha" maskUnits="userSpaceOnUse" x="0" y="0" width="24" height="24">
<rect width="24" height="24" fill="#D9D9D9"/>
</mask>
<g mask="url(#mask0_1337_7131)">
<path d="M5.61538 20C5.15513 20 4.77083 19.8458 4.4625 19.5375C4.15417 19.2292 4 18.8449 4 18.3846V5.61537C4 5.15512 4.15417 4.77083 4.4625 4.4625C4.77083 4.15416 5.15513 4 5.61538 4H14.0019L13.0019 5H5.61538C5.46154 5 5.32052 5.0641 5.1923 5.1923C5.0641 5.32051 5 5.46154 5 5.61537V18.3846C5 18.5385 5.0641 18.6795 5.1923 18.8077C5.32052 18.9359 5.46154 19 5.61538 19H18.3846C18.5385 19 18.6795 18.9359 18.8077 18.8077C18.9359 18.6795 19 18.5385 19 18.3846V10.8961L20 9.89615V18.3846C20 18.8449 19.8458 19.2292 19.5375 19.5375C19.2292 19.8458 18.8449 20 18.3846 20H5.61538ZM10 14V11.3846L18.9442 2.44037C19.0545 2.33012 19.1705 2.25384 19.2923 2.21152C19.4141 2.16922 19.5423 2.14807 19.6769 2.14807C19.8026 2.14807 19.9253 2.16922 20.0452 2.21152C20.1651 2.25384 20.2737 2.32371 20.3712 2.42115L21.4827 3.5C21.5891 3.61025 21.6699 3.73172 21.725 3.86442C21.7801 3.99711 21.8077 4.13076 21.8077 4.26537C21.8077 4.39999 21.7875 4.52724 21.7471 4.64712C21.7067 4.76699 21.6314 4.88206 21.5212 4.99232L12.5192 14H10ZM11 13H12.0923L18.7577 6.33462L18.2115 5.78847L17.6019 5.20385L11 11.8058V13Z" fill="black"/>
</g>
</svg>
