<svg width="24" height="24" viewBox="0 0 24 24" fill="none" xmlns="http://www.w3.org/2000/svg">
<mask id="mask0_1396_3403" style="mask-type:alpha" maskUnits="userSpaceOnUse" x="0" y="0" width="24" height="24">
<rect width="24" height="24" fill="#D9D9D9"/>
</mask>
<g mask="url(#mask0_1396_3403)">
<path d="M6 22C5.45 22 4.97917 21.8042 4.5875 21.4125C4.19583 21.0208 4 20.55 4 20V4C4 3.45 4.19583 2.97917 4.5875 2.5875C4.97917 2.19583 5.45 2 6 2H15L20 7V20C20 20.55 19.8042 21.0208 19.4125 21.4125C19.0208 21.8042 18.55 22 18 22H6ZM6 20H18V8H14V4H6V20ZM12 19C13.1167 19 14.0625 18.6083 14.8375 17.825C15.6125 17.0417 16 16.1 16 15V11H14V15C14 15.55 13.8083 16.0208 13.425 16.4125C13.0417 16.8042 12.5667 17 12 17C11.45 17 10.9792 16.8042 10.5875 16.4125C10.1958 16.0208 10 15.55 10 15V9.5C10 9.35 10.05 9.22917 10.15 9.1375C10.25 9.04583 10.3667 9 10.5 9C10.65 9 10.7708 9.04583 10.8625 9.1375C10.9542 9.22917 11 9.35 11 9.5V15H13V9.5C13 8.8 12.7583 8.20833 12.275 7.725C11.7917 7.24167 11.2 7 10.5 7C9.8 7 9.20833 7.24167 8.725 7.725C8.24167 8.20833 8 8.8 8 9.5V15C8 16.1 8.39167 17.0417 9.175 17.825C9.95833 18.6083 10.9 19 12 19Z" fill="black"/>
</g>
</svg>
