<svg width="24" height="24" viewBox="0 0 24 24" fill="none" xmlns="http://www.w3.org/2000/svg">
<mask id="mask0_1856_98" style="mask-type:alpha" maskUnits="userSpaceOnUse" x="0" y="0" width="24" height="24">
<rect width="24" height="24" fill="#D9D9D9"/>
</mask>
<g mask="url(#mask0_1856_98)">
<path d="M5.6155 20C5.15517 20 4.77083 19.8458 4.4625 19.5375C4.15417 19.2292 4 18.8448 4 18.3845V13H5V18.3845C5 18.5385 5.06408 18.6796 5.19225 18.8077C5.32042 18.9359 5.4615 19 5.6155 19H11V20H5.6155ZM13 20V19H18.3845C18.5385 19 18.6796 18.9359 18.8077 18.8077C18.9359 18.6796 19 18.5385 19 18.3845V13H20V18.3845C20 18.8448 19.8458 19.2292 19.5375 19.5375C19.2292 19.8458 18.8448 20 18.3845 20H13ZM7.5 16.5L9.4615 13.923L11.2115 16.0385L13.827 12.7308L16.6538 16.5H7.5ZM4 11V5.6155C4 5.15517 4.15417 4.77083 4.4625 4.4625C4.77083 4.15417 5.15517 4 5.6155 4H11V5H5.6155C5.4615 5 5.32042 5.06408 5.19225 5.19225C5.06408 5.32042 5 5.4615 5 5.6155V11H4ZM19 11V5.6155C19 5.4615 18.9359 5.32042 18.8077 5.19225C18.6796 5.06408 18.5385 5 18.3845 5H13V4H18.3845C18.8448 4 19.2292 4.15417 19.5375 4.4625C19.8458 4.77083 20 5.15517 20 5.6155V11H19ZM15.3077 9.80775C14.9897 9.80775 14.7243 9.70133 14.5115 9.4885C14.2987 9.27567 14.1923 9.01025 14.1923 8.69225C14.1923 8.37442 14.2987 8.10908 14.5115 7.89625C14.7243 7.68342 14.9897 7.577 15.3077 7.577C15.6256 7.577 15.8909 7.68342 16.1038 7.89625C16.3166 8.10908 16.423 8.37442 16.423 8.69225C16.423 9.01025 16.3166 9.27567 16.1038 9.4885C15.8909 9.70133 15.6256 9.80775 15.3077 9.80775Z" fill="black"/>
</g>
</svg>
