<svg width="16" height="16" viewBox="0 0 16 16" fill="none" xmlns="http://www.w3.org/2000/svg">
<mask id="mask0_1349_3305" style="mask-type:alpha" maskUnits="userSpaceOnUse" x="0" y="0" width="16" height="16">
<rect width="16" height="16" fill="#D9D9D9"/>
</mask>
<g mask="url(#mask0_1349_3305)">
<path d="M2.55556 15C2.12778 15 1.76157 14.8477 1.45694 14.5431C1.15231 14.2384 1 13.8722 1 13.4444V2.55556C1 2.12778 1.15231 1.76157 1.45694 1.45694C1.76157 1.15231 2.12778 1 2.55556 1H13.4444C13.8722 1 14.2384 1.15231 14.5431 1.45694C14.8477 1.76157 15 2.12778 15 2.55556V13.4444C15 13.8722 14.8477 14.2384 14.5431 14.5431C14.2384 14.8477 13.8722 15 13.4444 15H2.55556ZM2.55556 13.4444H13.4444V2.55556H2.55556V13.4444ZM3.33333 11.8889H12.6667L9.75 8L7.41667 11.1111L5.66667 8.77778L3.33333 11.8889ZM5.27778 6.44444C5.60185 6.44444 5.87732 6.33102 6.10417 6.10417C6.33102 5.87732 6.44444 5.60185 6.44444 5.27778C6.44444 4.9537 6.33102 4.67824 6.10417 4.45139C5.87732 4.22454 5.60185 4.11111 5.27778 4.11111C4.9537 4.11111 4.67824 4.22454 4.45139 4.45139C4.22454 4.67824 4.11111 4.9537 4.11111 5.27778C4.11111 5.60185 4.22454 5.87732 4.45139 6.10417C4.67824 6.33102 4.9537 6.44444 5.27778 6.44444Z" fill="#6D767F"/>
</g>
</svg>
