<svg width="24" height="24" viewBox="0 0 24 24" fill="none" xmlns="http://www.w3.org/2000/svg">
<mask id="mask0_1238_6034" style="mask-type:alpha" maskUnits="userSpaceOnUse" x="0" y="0" width="24" height="24">
<rect width="24" height="24" fill="#D9D9D9"/>
</mask>
<g mask="url(#mask0_1238_6034)">
<path d="M2.73083 20.1538V3.15384H11.7308V7.15384H21.2693V20.1538H2.73083ZM3.73084 19.1538H6.73083V16.1538H3.73084V19.1538ZM3.73084 15.1538H6.73083V12.1538H3.73084V15.1538ZM3.73084 11.1538H6.73083V8.15384H3.73084V11.1538ZM3.73084 7.15384H6.73083V4.15384H3.73084V7.15384ZM7.73083 19.1538H10.7308V16.1538H7.73083V19.1538ZM7.73083 15.1538H10.7308V12.1538H7.73083V15.1538ZM7.73083 11.1538H10.7308V8.15384H7.73083V11.1538ZM7.73083 7.15384H10.7308V4.15384H7.73083V7.15384ZM11.7308 19.1538H20.2693V8.15384H11.7308V11.1538H14.1154V12.1538H11.7308V15.1538H14.1154V16.1538H11.7308V19.1538ZM16.5001 12.1538V11.1538H17.5001V12.1538H16.5001ZM16.5001 16.1538V15.1538H17.5001V16.1538H16.5001Z" fill="black"/>
</g>
</svg>
