<svg width="24" height="24" viewBox="0 0 24 24" fill="none" xmlns="http://www.w3.org/2000/svg">
<mask id="mask0_1424_6583" style="mask-type:alpha" maskUnits="userSpaceOnUse" x="0" y="0" width="24" height="24">
<rect width="24" height="24" fill="#D9D9D9"/>
</mask>
<g mask="url(#mask0_1424_6583)">
<path d="M17.4615 20H7.42308V9L13.6923 2.80768L14.1346 3.25C14.2256 3.34102 14.3022 3.45769 14.3644 3.6C14.4266 3.7423 14.4577 3.87307 14.4577 3.9923V4.15L13.4346 9H20.3846C20.8026 9 21.1763 9.16474 21.5058 9.49423C21.8353 9.82371 22 10.1974 22 10.6154V11.8462C22 11.9372 21.9897 12.0365 21.9692 12.1442C21.9487 12.2519 21.9218 12.3513 21.8885 12.4423L19.1577 18.9154C19.0205 19.2231 18.7898 19.4808 18.4654 19.6885C18.141 19.8962 17.8064 20 17.4615 20ZM8.42308 19H17.4615C17.6026 19 17.7468 18.9615 17.8942 18.8846C18.0417 18.8077 18.1538 18.6795 18.2308 18.5L21 12V10.6154C21 10.4359 20.9423 10.2885 20.8269 10.1731C20.7115 10.0577 20.5641 10 20.3846 10H12.1923L13.35 4.53845L8.42308 9.42693V19ZM7.42308 9V10H4V19H7.42308V20H3V9H7.42308Z" fill="black"/>
</g>
</svg>
