<svg width="24" height="24" viewBox="0 0 24 24" fill="none" xmlns="http://www.w3.org/2000/svg">
<mask id="mask0_1843_95" style="mask-type:alpha" maskUnits="userSpaceOnUse" x="0" y="0" width="24" height="24">
<rect width="24" height="24" fill="#D9D9D9"/>
</mask>
<g mask="url(#mask0_1843_95)">
<path d="M11.9963 16.2115C12.2179 16.2115 12.4047 16.1356 12.5568 15.9838C12.7086 15.8317 12.7845 15.6448 12.7845 15.423C12.7845 15.2013 12.7086 15.0145 12.5568 14.8625C12.4047 14.7105 12.2179 14.6345 11.9963 14.6345C11.7744 14.6345 11.5875 14.7105 11.4355 14.8625C11.2837 15.0145 11.2077 15.2013 11.2077 15.423C11.2077 15.6448 11.2837 15.8317 11.4355 15.9838C11.5875 16.1356 11.7744 16.2115 11.9963 16.2115ZM11.4808 12.9H12.4462C12.4591 12.6808 12.4812 12.4904 12.5125 12.3288C12.5438 12.1673 12.6012 12.0077 12.6845 11.85C12.7678 11.6923 12.8753 11.5343 13.0068 11.376C13.1381 11.2177 13.3012 11.0411 13.4962 10.8463C13.9769 10.3654 14.3253 9.94842 14.5413 9.59525C14.7574 9.24208 14.8655 8.84108 14.8655 8.39225C14.8655 7.61158 14.5975 6.98242 14.0615 6.50475C13.5257 6.02725 12.8712 5.7885 12.098 5.7885C11.3865 5.7885 10.774 5.97825 10.2605 6.35775C9.74717 6.73725 9.37183 7.19233 9.1345 7.723L10.0538 8.10375C10.2218 7.70508 10.4615 7.37467 10.773 7.1125C11.0847 6.85033 11.5058 6.71925 12.0365 6.71925C12.666 6.71925 13.134 6.89133 13.4405 7.2355C13.7468 7.57983 13.9 7.97117 13.9 8.4095C13.9 8.74417 13.8083 9.05058 13.625 9.32875C13.4417 9.60708 13.1846 9.89942 12.8538 10.2057C12.6089 10.4391 12.399 10.6618 12.224 10.874C12.049 11.0862 11.9032 11.298 11.7865 11.5095C11.6698 11.7212 11.5898 11.9388 11.5463 12.1625C11.5026 12.3862 11.4808 12.632 11.4808 12.9ZM12 21.577L9.423 19H5.6155C5.15517 19 4.77083 18.8458 4.4625 18.5375C4.15417 18.2292 4 17.8448 4 17.3845V4.6155C4 4.15517 4.15417 3.77083 4.4625 3.4625C4.77083 3.15417 5.15517 3 5.6155 3H18.3845C18.8448 3 19.2292 3.15417 19.5375 3.4625C19.8458 3.77083 20 4.15517 20 4.6155V17.3845C20 17.8448 19.8458 18.2292 19.5375 18.5375C19.2292 18.8458 18.8448 19 18.3845 19H14.577L12 21.577ZM5.6155 18H9.8385L12 20.1615L14.1615 18H18.3845C18.564 18 18.7115 17.9423 18.827 17.827C18.9423 17.7115 19 17.564 19 17.3845V4.6155C19 4.436 18.9423 4.2885 18.827 4.173C18.7115 4.05767 18.564 4 18.3845 4H5.6155C5.436 4 5.2885 4.05767 5.173 4.173C5.05767 4.2885 5 4.436 5 4.6155V17.3845C5 17.564 5.05767 17.7115 5.173 17.827C5.2885 17.9423 5.436 18 5.6155 18Z" fill="black"/>
</g>
</svg>
