<svg width="24" height="24" viewBox="0 0 24 24" fill="none" xmlns="http://www.w3.org/2000/svg">
<mask id="mask0_1189_8225" style="mask-type:alpha" maskUnits="userSpaceOnUse" x="0" y="0" width="24" height="24">
<rect width="24" height="24" fill="#D9D9D9"/>
</mask>
<g mask="url(#mask0_1189_8225)">
<path d="M6.61537 21C6.16794 21 5.78685 20.8426 5.4721 20.5279C5.15737 20.2131 5 19.8321 5 19.3846V10.6154C5 10.1679 5.15737 9.78685 5.4721 9.4721C5.78685 9.15737 6.16794 9 6.61537 9H8V7C8 5.8859 8.38814 4.94071 9.16442 4.16443C9.94071 3.38814 10.8859 3 12 3C13.1141 3 14.0593 3.38814 14.8356 4.16443C15.6119 4.94071 16 5.8859 16 7V9H17.3846C17.8321 9 18.2132 9.15737 18.5279 9.4721C18.8426 9.78685 19 10.1679 19 10.6154V19.3846C19 19.8321 18.8426 20.2131 18.5279 20.5279C18.2132 20.8426 17.8321 21 17.3846 21H6.61537ZM6.61537 20H17.3846C17.5641 20 17.7115 19.9423 17.8269 19.8269C17.9423 19.7115 18 19.5641 18 19.3846V10.6154C18 10.4359 17.9423 10.2885 17.8269 10.1731C17.7115 10.0577 17.5641 10 17.3846 10H6.61537C6.43589 10 6.28846 10.0577 6.17308 10.1731C6.05769 10.2885 6 10.4359 6 10.6154V19.3846C6 19.5641 6.05769 19.7115 6.17308 19.8269C6.28846 19.9423 6.43589 20 6.61537 20ZM12 16.5C12.4218 16.5 12.7772 16.3554 13.0663 16.0663C13.3554 15.7773 13.5 15.4218 13.5 15C13.5 14.5782 13.3554 14.2227 13.0663 13.9337C12.7772 13.6446 12.4218 13.5 12 13.5C11.5782 13.5 11.2228 13.6446 10.9337 13.9337C10.6446 14.2227 10.5 14.5782 10.5 15C10.5 15.4218 10.6446 15.7773 10.9337 16.0663C11.2228 16.3554 11.5782 16.5 12 16.5ZM9 9H15V7C15 6.16667 14.7083 5.45833 14.125 4.875C13.5417 4.29167 12.8333 4 12 4C11.1667 4 10.4583 4.29167 9.875 4.875C9.29167 5.45833 9 6.16667 9 7V9Z" fill="black"/>
</g>
</svg>
