<svg width="14" height="16" viewBox="0 0 14 16" fill="none" xmlns="http://www.w3.org/2000/svg">
<mask id="mask0_1349_3312" style="mask-type:alpha" maskUnits="userSpaceOnUse" x="0" y="0" width="14" height="16">
<rect width="14" height="16" fill="#D9D9D9"/>
</mask>
<g mask="url(#mask0_1349_3312)">
<path d="M2.875 15C2.49687 15 2.17318 14.8694 1.90391 14.6083C1.63464 14.3472 1.5 14.0333 1.5 13.6667V7C1.5 6.63333 1.63464 6.31944 1.90391 6.05833C2.17318 5.79722 2.49687 5.66667 2.875 5.66667H3.5625V4.33333C3.5625 3.41111 3.89766 2.625 4.56797 1.975C5.23828 1.325 6.04896 1 7 1C7.95104 1 8.76172 1.325 9.43203 1.975C10.1023 2.625 10.4375 3.41111 10.4375 4.33333V5.66667H11.125C11.5031 5.66667 11.8268 5.79722 12.0961 6.05833C12.3654 6.31944 12.5 6.63333 12.5 7V13.6667C12.5 14.0333 12.3654 14.3472 12.0961 14.6083C11.8268 14.8694 11.5031 15 11.125 15H2.875ZM2.875 13.6667H11.125V7H2.875V13.6667ZM7 11.6667C7.37813 11.6667 7.70182 11.5361 7.97109 11.275C8.24037 11.0139 8.375 10.7 8.375 10.3333C8.375 9.96667 8.24037 9.65278 7.97109 9.39167C7.70182 9.13056 7.37813 9 7 9C6.62187 9 6.29818 9.13056 6.02891 9.39167C5.75964 9.65278 5.625 9.96667 5.625 10.3333C5.625 10.7 5.75964 11.0139 6.02891 11.275C6.29818 11.5361 6.62187 11.6667 7 11.6667ZM4.9375 5.66667H9.0625V4.33333C9.0625 3.77778 8.86198 3.30556 8.46094 2.91667C8.0599 2.52778 7.57292 2.33333 7 2.33333C6.42708 2.33333 5.9401 2.52778 5.53906 2.91667C5.13802 3.30556 4.9375 3.77778 4.9375 4.33333V5.66667Z" fill="#6D767F"/>
</g>
</svg>
