<svg width="24" height="24" viewBox="0 0 24 24" fill="none" xmlns="http://www.w3.org/2000/svg">
<mask id="mask0_1263_7481" style="mask-type:alpha" maskUnits="userSpaceOnUse" x="0" y="0" width="24" height="24">
<rect width="24" height="24" fill="#D9D9D9"/>
</mask>
<g mask="url(#mask0_1263_7481)">
<path fill-rule="evenodd" clip-rule="evenodd" d="M8.5 13.6752V16.9577L5 18.3V13.5829C4.64614 13.2661 4.3123 12.9501 4 12.6348V18.6346C4 18.9077 4.10962 19.1195 4.32885 19.2702C4.54807 19.4208 4.78588 19.4487 5.0423 19.3538L9 17.8231L15 19.9231L19.4154 18.4692C19.5936 18.4115 19.7356 18.3122 19.8414 18.1711C19.9471 18.0301 20 17.8641 20 17.6731V5.28843C20 5.02818 19.8904 4.83235 19.6712 4.70093C19.4519 4.56953 19.2141 4.55126 18.9577 4.64613L15 6.1769L12.4083 5.26979C12.4946 5.61396 12.551 5.96924 12.579 6.33296L14.5 7.00383V18.7038L9.5 16.9577V12.7453C9.18711 13.0548 8.85326 13.3648 8.5 13.6752ZM19 17.55L15.5 18.7038V7.00383L19 5.69998V17.55Z" fill="black"/>
<path d="M6.8 12.5C8.08333 11.4154 9.0375 10.4074 9.6625 9.47598C10.2875 8.54456 10.6 7.68141 10.6 6.88653C10.6 5.69038 10.2192 4.74358 9.4577 4.04615C8.69615 3.34872 7.81025 3 6.8 3C5.78975 3 4.90385 3.34872 4.1423 4.04615C3.38077 4.74358 3 5.69038 3 6.88653C3 7.68141 3.3157 8.54456 3.9471 9.47598C4.57852 10.4074 5.52948 11.4154 6.8 12.5ZM6.8 7.96155C6.50128 7.96155 6.25032 7.85994 6.04712 7.65673C5.84391 7.45353 5.7423 7.20257 5.7423 6.90385C5.7423 6.60513 5.84391 6.35417 6.04712 6.15095C6.25032 5.94775 6.50128 5.84615 6.8 5.84615C7.09872 5.84615 7.34968 5.94775 7.55288 6.15095C7.75609 6.35417 7.8577 6.60513 7.8577 6.90385C7.8577 7.20257 7.75609 7.45353 7.55288 7.65673C7.34968 7.85994 7.09872 7.96155 6.8 7.96155Z" fill="black"/>
</g>
</svg>
