<svg width="24" height="24" viewBox="0 0 24 24" fill="none" xmlns="http://www.w3.org/2000/svg">
<mask id="mask0_2113_595" style="mask-type:alpha" maskUnits="userSpaceOnUse" x="0" y="0" width="24" height="24">
<rect width="24" height="24" fill="#D9D9D9"/>
</mask>
<g mask="url(#mask0_2113_595)">
<path d="M21 8V17C21 17.5 20.5 18 20 18V17H13V15.1429H20V4L4 4V15.1429H11V17H4L4 20H20V19C21 19 22 18 22 17V8C22 7.5 22.5 7 23 7V6C22 6 21 7 21 8ZM5.0437 5H18.9583V14H5.0437V5ZM18.9583 19H5.0437V18H18.9583V19Z" fill="black"/>
<path fill-rule="evenodd" clip-rule="evenodd" d="M11.4791 11.5L9.34205 8.96652C9.40711 8.90625 9.48034 8.84374 9.56218 8.78088C10.0418 8.4125 10.6905 8.00001 12 8.00001C13.3095 8.00001 13.9582 8.4125 14.4378 8.78088C14.5197 8.84374 14.5929 8.90625 14.658 8.96652L12.5209 11.5H11.4791ZM13 12.5H11L8 9.00001C8 9.00001 8.875 7.00001 12 7.00001C15.125 7.00001 16 9.00001 16 9.00001L13 12.5Z" fill="black"/>
</g>
</svg>
