<svg width="14" height="16" viewBox="0 0 14 16" fill="none" xmlns="http://www.w3.org/2000/svg">
<mask id="mask0_1385_3451" style="mask-type:alpha" maskUnits="userSpaceOnUse" x="0" y="0" width="14" height="16">
<rect width="14" height="16" fill="#D9D9D9"/>
</mask>
<g mask="url(#mask0_1385_3451)">
<path d="M3.39054 16C3.00198 16 2.67308 15.8666 2.40385 15.6C2.13462 15.3333 2 15.0076 2 14.6227V1.3773C2 0.992435 2.13462 0.666668 2.40385 0.400001C2.67308 0.133334 3.00198 0 3.39054 0H10.6095C10.998 0 11.3269 0.133334 11.5962 0.400001C11.8654 0.666668 12 0.992435 12 1.3773V14.6227C12 15.0076 11.8654 15.3333 11.5962 15.6C11.3269 15.8667 10.998 16 10.6095 16L3.39054 16ZM3.15383 13.9048V14.6227C3.15383 14.6813 3.17849 14.7351 3.22779 14.7839C3.27711 14.8328 3.33136 14.8572 3.39054 14.8572H10.6095C10.6686 14.8572 10.7229 14.8328 10.7722 14.7839C10.8215 14.7351 10.8462 14.6813 10.8462 14.6227V13.9048H3.15383ZM3.15383 12.762H10.8462V3.23808H3.15383V12.762ZM3.15383 2.09526H10.8462V1.37732C10.8462 1.3187 10.8215 1.26497 10.7722 1.21612C10.7229 1.16728 10.6686 1.14286 10.6095 1.14286H3.39054C3.33136 1.14286 3.27711 1.16728 3.22779 1.21612C3.17849 1.26497 3.15383 1.3187 3.15383 1.37732V2.09526Z" fill="#6D767F"/>
</g>
</svg>
