<svg width="24" height="24" viewBox="0 0 24 24" fill="none" xmlns="http://www.w3.org/2000/svg">
<mask id="mask0_1742_151" style="mask-type:alpha" maskUnits="userSpaceOnUse" x="0" y="0" width="24" height="24">
<rect width="24" height="24" fill="#D9D9D9"/>
</mask>
<g mask="url(#mask0_1742_151)">
<path d="M7.6155 22C7.15517 22 6.77083 21.8458 6.4625 21.5375C6.15417 21.2292 6 20.8448 6 20.3845V3.6155C6 3.15517 6.15417 2.77083 6.4625 2.4625C6.77083 2.15417 7.15517 2 7.6155 2H16.3845C16.8448 2 17.2292 2.15417 17.5375 2.4625C17.8458 2.77083 18 3.15517 18 3.6155V20.3845C18 20.8448 17.8458 21.2292 17.5375 21.5375C17.2292 21.8458 16.8448 22 16.3845 22H7.6155ZM7 19.5V20.3845C7 20.5385 7.06408 20.6796 7.19225 20.8078C7.32042 20.9359 7.4615 21 7.6155 21H16.3845C16.5385 21 16.6796 20.9359 16.8077 20.8078C16.9359 20.6796 17 20.5385 17 20.3845V19.5H7ZM7 18.5H17V5.5H7V18.5ZM7 4.5H17V3.6155C17 3.4615 16.9359 3.32042 16.8077 3.19225C16.6796 3.06408 16.5385 3 16.3845 3H7.6155C7.4615 3 7.32042 3.06408 7.19225 3.19225C7.06408 3.32042 7 3.4615 7 3.6155V4.5Z" fill="black"/>
</g>
</svg>
