<svg width="24" height="24" viewBox="0 0 24 24" fill="none" xmlns="http://www.w3.org/2000/svg">
<mask id="mask0_2113_624" style="mask-type:alpha" maskUnits="userSpaceOnUse" x="0" y="0" width="24" height="24">
<rect width="24" height="24" fill="#D9D9D9"/>
</mask>
<g mask="url(#mask0_2113_624)">
<path d="M21 17.5857V6.00001H9.41431L10.4143 7.00001H20V16.5857L21 17.5857Z" fill="black"/>
<path d="M18.6923 15.278V12.3078H17.8078V14.3935L18.6923 15.278Z" fill="black"/>
<path d="M15.3936 14.8078L16.2781 15.6923H15.3078V14.8078H15.3936Z" fill="black"/>
<path d="M10.6331 10.0472L13.9529 13.367C13.8737 13.4766 13.7837 13.5818 13.6828 13.6828C13.2148 14.1506 12.6539 14.3845 12 14.3845C11.3462 14.3845 10.7853 14.1506 10.3173 13.6828C9.84945 13.2148 9.61554 12.6538 9.61554 12C9.61554 11.3462 9.84945 10.7853 10.3173 10.3173C10.4182 10.2164 10.5235 10.1263 10.6331 10.0472Z" fill="black"/>
<path d="M7.58588 7.00001H4.00004V17H17.5859L18.5859 18H3.00004V6.00001H6.58588L7.58588 7.00001Z" fill="black"/>
<path d="M6.19229 11.6923H5.30779V8.30776H8.69229V9.19226H6.19229V11.6923Z" fill="black"/>
<path fill-rule="evenodd" clip-rule="evenodd" d="M20.6465 21.3536L2.64648 3.35356L3.35359 2.64645L21.3536 20.6465L20.6465 21.3536Z" fill="black"/>
</g>
</svg>
