<svg width="16" height="16" viewBox="0 0 16 16" fill="none" xmlns="http://www.w3.org/2000/svg">
<path fill-rule="evenodd" clip-rule="evenodd" d="M1.40469 14.5953C1.67448 14.8651 2.01073 15 2.41345 15H13.5865C13.9893 15 14.3255 14.8651 14.5953 14.5953C14.8651 14.3255 15 13.9893 15 13.5865V2.41345C15 2.01073 14.8651 1.67448 14.5953 1.40469C14.3255 1.1349 13.9893 1 13.5865 1H2.41345C2.01073 1 1.67448 1.1349 1.40469 1.40469C1.1349 1.67448 1 2.01073 1 2.41345V13.5865C1 13.9893 1.1349 14.3255 1.40469 14.5953ZM5.375 4.5H6.25V4.51602L9.75 9.90315V4.5H10.625V11.5H9.75V11.4975L9.7486 11.4986L6.25 6.11361V11.5H5.375V4.5Z" fill="#FF6666"/>
</svg>
