<svg width="24" height="24" viewBox="0 0 24 24" fill="none" xmlns="http://www.w3.org/2000/svg">
<mask id="mask0_1304_6588" style="mask-type:alpha" maskUnits="userSpaceOnUse" x="0" y="0" width="24" height="24">
<rect width="24" height="24" fill="#D9D9D9"/>
</mask>
<g mask="url(#mask0_1304_6588)">
<path fill-rule="evenodd" clip-rule="evenodd" d="M2.57812 21.4219C2.96354 21.8073 3.44391 22 4.01922 22H19.9808C20.5561 22 21.0365 21.8073 21.4219 21.4219C21.8073 21.0365 22 20.5561 22 19.9808V4.01922C22 3.44391 21.8073 2.96354 21.4219 2.57812C21.0365 2.19271 20.5561 2 19.9808 2H4.01922C3.44391 2 2.96354 2.19271 2.57812 2.57812C2.19271 2.96354 2 3.44391 2 4.01922V19.9808C2 20.5561 2.19271 21.0365 2.57812 21.4219ZM8.25 7H9.5V7.02288L14.5 14.7188V7H15.75V17H14.5V16.9964L14.498 16.998L9.5 9.30516V17H8.25V7Z" fill="#FF6666"/>
</g>
</svg>
