<svg width="24" height="24" viewBox="0 0 24 24" fill="none" xmlns="http://www.w3.org/2000/svg">
<g clip-path="url(#clip0_1193_8248)">
<path d="M19.1422 4.14326C19.1422 3.87623 19.0703 3.62974 18.9676 3.41407L18.947 3.39353C18.793 3.09569 18.5465 2.8492 18.2486 2.69515C18.0227 2.58218 17.7762 2.51028 17.5092 2.51028H9.52918C8.6254 2.51028 7.88594 3.24974 7.88594 4.15353V13.0579L5.48269 15.4508C4.84594 16.0876 4.84594 17.1351 5.48269 17.7719L8.73837 21.0276C9.05675 21.346 9.47783 21.5103 9.89891 21.5103C10.32 21.5103 10.7411 21.346 11.0595 21.0276L19.1422 12.9449V4.14326ZM18.1151 11.9589L14.2638 8.10758L18.1151 4.25623V11.9487V11.9589ZM13.5449 7.38866L9.68324 3.52704H17.3962L13.5346 7.38866H13.5449ZM8.90269 4.19461L12.8157 8.10758L8.90269 12.0206V4.19461ZM10.3303 20.2984C10.094 20.5449 9.69351 20.5346 9.45729 20.2984L6.20161 17.0427C5.9654 16.8065 5.9654 16.406 6.20161 16.1697L13.5346 8.83677L17.6632 12.9654L10.3303 20.2984Z" fill="black"/>
</g>
<defs>
<clipPath id="clip0_1193_8248">
<rect width="14.1422" height="19" fill="white" transform="translate(5 2.5)"/>
</clipPath>
</defs>
</svg>
