<svg width="24" height="24" viewBox="0 0 24 24" fill="none" xmlns="http://www.w3.org/2000/svg">
<mask id="mask0_1864_139" style="mask-type:alpha" maskUnits="userSpaceOnUse" x="0" y="0" width="24" height="24">
<rect width="24" height="24" fill="#D9D9D9"/>
</mask>
<g mask="url(#mask0_1864_139)">
<path d="M5.48854 16.5115C4.61287 15.6342 3.9407 14.6376 3.47204 13.5217C3.00354 12.4057 2.76929 11.2321 2.76929 10.0007C2.76929 8.76941 3.00354 7.59566 3.47204 6.4795C3.9407 5.36316 4.61287 4.36616 5.48854 3.48849L6.15004 4.15C5.3667 4.93333 4.76254 5.82916 4.33754 6.8375C3.91254 7.84583 3.70004 8.9 3.70004 10C3.70004 11.1 3.91254 12.1542 4.33754 13.1625C4.76254 14.1708 5.3667 15.0667 6.15004 15.85L5.48854 16.5115ZM7.78854 14.2115C7.2302 13.65 6.80404 13.0073 6.51004 12.2835C6.2162 11.5595 6.06929 10.7986 6.06929 10.0007C6.06929 9.20275 6.2162 8.44166 6.51004 7.7175C6.80404 6.99316 7.2302 6.35016 7.78854 5.78849L8.45004 6.45C7.9667 6.93333 7.6042 7.47916 7.36254 8.0875C7.12087 8.69583 7.00004 9.33333 7.00004 10C7.00004 10.6667 7.12087 11.3042 7.36254 11.9125C7.6042 12.5208 7.9667 13.0667 8.45004 13.55L7.78854 14.2115ZM11.5 20.1155V11.8385C11.0757 11.741 10.7325 11.5224 10.4703 11.1827C10.2081 10.8429 10.077 10.4487 10.077 10C10.077 9.4615 10.2629 9.00633 10.6345 8.6345C11.0064 8.26283 11.4615 8.077 12 8.077C12.5385 8.077 12.9937 8.26283 13.3655 8.6345C13.7372 9.00633 13.923 9.4615 13.923 10C13.923 10.4487 13.792 10.8429 13.5298 11.1827C13.2676 11.5224 12.9244 11.741 12.5 11.8385V20.1155H11.5ZM16.2115 14.2115L15.55 13.55C16.0334 13.0667 16.3959 12.5208 16.6375 11.9125C16.8792 11.3042 17 10.6667 17 10C17 9.33333 16.8792 8.69583 16.6375 8.0875C16.3959 7.47916 16.0334 6.93333 15.55 6.45L16.2115 5.78849C16.7699 6.34999 17.196 6.99266 17.49 7.7165C17.7839 8.4405 17.9308 9.20141 17.9308 9.99924C17.9308 10.7972 17.7839 11.5583 17.49 12.2825C17.196 13.0068 16.7699 13.6498 16.2115 14.2115ZM18.5115 16.5115L17.85 15.85C18.6334 15.0667 19.2375 14.1708 19.6625 13.1625C20.0875 12.1542 20.3 11.1 20.3 10C20.3 8.9 20.0875 7.84583 19.6625 6.8375C19.2375 5.82916 18.6334 4.93333 17.85 4.15L18.5115 3.48849C19.3872 4.36583 20.0594 5.36241 20.528 6.47825C20.9965 7.59425 21.2308 8.76791 21.2308 9.99924C21.2308 11.2306 20.9965 12.4043 20.528 13.5205C20.0594 14.6368 19.3872 15.6338 18.5115 16.5115Z" fill="black"/>
</g>
</svg>
