<svg width="24" height="24" viewBox="0 0 24 24" fill="none" xmlns="http://www.w3.org/2000/svg">
<path d="M1.44096 22.2129C0.227312 20.9993 1.54209 19.3473 5.09875 17.5774L7.34062 16.4649L8.21714 14.5602C8.68911 13.5151 9.41393 11.7958 9.80162 10.7676L10.5264 8.87967L10.0376 7.48061C9.43078 5.76128 9.21165 3.16543 9.59934 2.23834C10.1219 0.974124 11.8412 1.10897 12.5155 2.45747C13.038 3.51941 12.9874 5.42415 12.3638 7.83458L11.8412 9.80676L12.2963 10.5821C12.5492 11.0035 13.274 12.0149 13.9145 12.8072L15.1113 14.3074L16.6115 14.1051C21.365 13.4814 23 14.5433 23 16.0604C23 17.9651 19.2579 18.1337 16.1227 15.9255C15.4147 15.4367 14.9259 14.931 14.9259 14.931C14.9259 14.931 12.9537 15.3356 11.9929 15.5884C10.9984 15.8581 10.4927 16.0267 9.02623 16.5155C9.02623 16.5155 8.52055 17.2572 8.18343 17.7966C6.93607 19.8193 5.48644 21.4881 4.44136 22.0949C3.27828 22.7691 2.06463 22.8197 1.44096 22.2129ZM3.3457 21.5218C4.01995 21.1004 5.40216 19.4653 6.36296 17.9651L6.75065 17.3583L4.99761 18.2348C2.26691 19.6002 1.03641 20.8813 1.67694 21.6735C2.03092 22.0949 2.46918 22.0612 3.3457 21.5218ZM20.9773 16.5829C21.6347 16.111 21.5504 15.1839 20.7918 14.7962C20.2019 14.5096 19.7299 14.4422 18.2129 14.4591C17.2858 14.5265 15.7687 14.7119 15.5159 14.7625C15.5159 14.7625 16.3418 15.3356 16.7126 15.5379C17.2015 15.8244 18.3814 16.3301 19.2579 16.5998C20.1007 16.8695 20.5896 16.8526 20.9773 16.5829ZM13.8808 13.6331C13.4763 13.2117 12.7852 12.3183 12.3638 11.6778C11.7906 10.9361 11.5041 10.4136 11.5041 10.4136C11.5041 10.4136 11.0827 11.7452 10.7456 12.5543L9.68363 15.1839L9.38021 15.7738C9.38021 15.7738 11.0153 15.2344 11.8581 15.0153C12.7346 14.7793 14.5382 14.4253 14.5382 14.4253L13.8808 13.6331ZM11.6052 4.48021C11.7064 3.62054 11.7569 2.76088 11.4704 2.32262C10.695 1.47981 9.76791 2.18777 9.93647 4.1768C9.98704 4.85104 10.1556 5.99726 10.3747 6.70522L10.7793 7.98629L11.0658 7.02549C11.2175 6.48609 11.4535 5.33987 11.6052 4.48021Z" fill="black"/>
</svg>
