<svg width="24" height="24" viewBox="0 0 24 24" fill="none" xmlns="http://www.w3.org/2000/svg">
<mask id="mask0_1189_8218" style="mask-type:alpha" maskUnits="userSpaceOnUse" x="0" y="0" width="24" height="24">
<rect width="24" height="24" fill="#D9D9D9"/>
</mask>
<g mask="url(#mask0_1189_8218)">
<path d="M12 11.3846C11.175 11.3846 10.4688 11.0909 9.88125 10.5034C9.29375 9.91589 9 9.20964 9 8.38464C9 7.55962 9.29375 6.85336 9.88125 6.26586C10.4688 5.67836 11.175 5.38461 12 5.38461C12.825 5.38461 13.5313 5.67836 14.1188 6.26586C14.7063 6.85336 15 7.55962 15 8.38464C15 9.20964 14.7063 9.91589 14.1188 10.5034C13.5313 11.0909 12.825 11.3846 12 11.3846ZM5 18.6154V16.9692C5 16.5564 5.12019 16.1702 5.36058 15.8106C5.60096 15.451 5.92436 15.1718 6.33078 14.9731C7.27436 14.5205 8.21858 14.1811 9.16345 13.9548C10.1083 13.7285 11.0539 13.6154 12 13.6154C12.9461 13.6154 13.8917 13.7285 14.8365 13.9548C15.7814 14.1811 16.7256 14.5205 17.6692 14.9731C18.0756 15.1718 18.399 15.451 18.6394 15.8106C18.8798 16.1702 19 16.5564 19 16.9692V18.6154H5ZM6 17.6154H18V16.9692C18 16.7475 17.9285 16.5391 17.7856 16.3442C17.6426 16.1494 17.4449 15.9846 17.1923 15.85C16.3692 15.4513 15.5206 15.1458 14.6464 14.9337C13.7722 14.7215 12.8901 14.6154 12 14.6154C11.1099 14.6154 10.2278 14.7215 9.3536 14.9337C8.4794 15.1458 7.63077 15.4513 6.8077 15.85C6.55513 15.9846 6.35737 16.1494 6.21442 16.3442C6.07148 16.5391 6 16.7475 6 16.9692V17.6154ZM12 10.3846C12.55 10.3846 13.0208 10.1888 13.4125 9.79714C13.8042 9.40547 14 8.93464 14 8.38464C14 7.83464 13.8042 7.36381 13.4125 6.97214C13.0208 6.58047 12.55 6.38464 12 6.38464C11.45 6.38464 10.9792 6.58047 10.5875 6.97214C10.1958 7.36381 10 7.83464 10 8.38464C10 8.93464 10.1958 9.40547 10.5875 9.79714C10.9792 10.1888 11.45 10.3846 12 10.3846Z" fill="black"/>
</g>
</svg>
