<svg width="24" height="24" viewBox="0 0 24 24" fill="none" xmlns="http://www.w3.org/2000/svg">
<mask id="mask0_1845_105" style="mask-type:alpha" maskUnits="userSpaceOnUse" x="0" y="0" width="24" height="24">
<rect width="24" height="24" fill="#D9D9D9"/>
</mask>
<g mask="url(#mask0_1845_105)">
<path d="M16 8.61548V5.61548H8.00003V8.61548H7.00003V4.61523H17V8.61548H16ZM17.6155 12.1155C17.8989 12.1155 18.1364 12.0197 18.328 11.828C18.5197 11.6363 18.6155 11.3988 18.6155 11.1155C18.6155 10.8322 18.5197 10.5947 18.328 10.403C18.1364 10.2113 17.8989 10.1155 17.6155 10.1155C17.3322 10.1155 17.0947 10.2113 16.903 10.403C16.7114 10.5947 16.6155 10.8322 16.6155 11.1155C16.6155 11.3988 16.7114 11.6363 16.903 11.828C17.0947 12.0197 17.3322 12.1155 17.6155 12.1155ZM16 19V14.4615H8.00003V19H16ZM17 20H7.00003V16H3.57703V10.6155C3.57703 10.0488 3.76928 9.57382 4.15378 9.19048C4.53844 8.80715 5.01286 8.61548 5.57703 8.61548H18.423C18.9897 8.61548 19.4647 8.80715 19.848 9.19048C20.2314 9.57382 20.423 10.0488 20.423 10.6155V16H17V20ZM19.423 15V10.6155C19.423 10.3322 19.3272 10.0947 19.1355 9.90298C18.9439 9.71132 18.7064 9.61548 18.423 9.61548H5.57703C5.29369 9.61548 5.05619 9.71132 4.86453 9.90298C4.67286 10.0947 4.57703 10.3322 4.57703 10.6155V15H7.00003V13.4615H17V15H19.423Z" fill="black"/>
</g>
</svg>
