<svg width="24" height="24" viewBox="0 0 24 24" fill="none" xmlns="http://www.w3.org/2000/svg">
<mask id="mask0_1776_7529" style="mask-type:alpha" maskUnits="userSpaceOnUse" x="0" y="0" width="24" height="24">
<rect width="24" height="24" fill="#D9D9D9"/>
</mask>
<g mask="url(#mask0_1776_7529)">
<path d="M4 20.7692V3.23074L5.26925 4.19224L6.6155 3.23074L7.9615 4.19224L9.30775 3.23074L10.6537 4.19224L12 3.23074L13.3462 4.19224L14.6923 3.23074L16.0385 4.19224L17.3845 3.23074L18.7308 4.19224L20 3.23074V20.7692L18.7308 19.8077L17.3845 20.7692L16.0385 19.8077L14.6923 20.7692L13.3462 19.8077L12 20.7692L10.6537 19.8077L9.30775 20.7692L7.9615 19.8077L6.6155 20.7692L5.26925 19.8077L4 20.7692ZM6.5 15.8845H17.5V14.8845H6.5V15.8845ZM6.5 12.5H17.5V11.5H6.5V12.5ZM6.5 9.11549H17.5V8.11549H6.5V9.11549ZM5 19.1H19V4.89999H5V19.1Z" fill="black"/>
</g>
</svg>
