<svg width="24" height="24" viewBox="0 0 24 24" fill="none" xmlns="http://www.w3.org/2000/svg">
<mask id="mask0_1238_6022" style="mask-type:alpha" maskUnits="userSpaceOnUse" x="0" y="0" width="24" height="24">
<rect width="24" height="24" fill="#D9D9D9"/>
</mask>
<g mask="url(#mask0_1238_6022)">
<path d="M17 15.6346C16.359 15.6346 15.8141 15.4103 15.3654 14.9616C14.9167 14.5128 14.6923 13.9679 14.6923 13.3269C14.6923 12.6859 14.9167 12.141 15.3654 11.6923C15.8141 11.2436 16.359 11.0192 17 11.0192C17.641 11.0192 18.1859 11.2436 18.6346 11.6923C19.0833 12.141 19.3077 12.6859 19.3077 13.3269C19.3077 13.9679 19.0833 14.5128 18.6346 14.9616C18.1859 15.4103 17.641 15.6346 17 15.6346ZM17 14.6346C17.3603 14.6346 17.6683 14.5067 17.924 14.2509C18.1798 13.9952 18.3077 13.6872 18.3077 13.3269C18.3077 12.9667 18.1798 12.6586 17.924 12.4029C17.6683 12.1471 17.3603 12.0192 17 12.0192C16.6397 12.0192 16.3317 12.1471 16.076 12.4029C15.8202 12.6586 15.6923 12.9667 15.6923 13.3269C15.6923 13.6872 15.8202 13.9952 16.076 14.2509C16.3317 14.5067 16.6397 14.6346 17 14.6346ZM11.6923 21.5385V19.3308C11.6923 19.1017 11.747 18.8863 11.8563 18.6846C11.9656 18.4828 12.1186 18.3219 12.3154 18.2019C12.7784 17.9242 13.2667 17.694 13.7803 17.5113C14.294 17.3286 14.8185 17.1935 15.3539 17.1058L17 19.25L18.6269 17.1058C19.1685 17.1935 19.6955 17.3286 20.2078 17.5113C20.7201 17.694 21.2104 17.9242 21.6789 18.2019C21.8763 18.3212 22.0272 18.4805 22.1317 18.6798C22.2362 18.8792 22.2949 19.0898 22.3077 19.3116V21.5385H11.6923ZM12.6673 20.5385H16.7231L14.9692 18.2346C14.5627 18.3302 14.1675 18.4544 13.7836 18.6072C13.3997 18.7601 13.0276 18.9372 12.6673 19.1385V20.5385ZM17.2769 20.5385H21.3077V19.1385C20.9513 18.9333 20.5811 18.7587 20.1972 18.6144C19.8133 18.4702 19.418 18.35 19.0115 18.2538L17.2769 20.5385ZM5.62455 20C5.171 20 4.78685 19.8418 4.4721 19.5255C4.15737 19.2091 4 18.8289 4 18.3846V5.61537C4 5.17114 4.15818 4.79086 4.47453 4.47453C4.79086 4.15818 5.17114 4 5.61538 4H18.3846C18.8289 4 19.2091 4.15818 19.5255 4.47453C19.8418 4.79086 20 5.17114 20 5.61537V9.3077C19.8487 9.16667 19.6949 9.0391 19.5385 8.925C19.3821 8.8109 19.2026 8.72308 19 8.66153V5.61537C19 5.43589 18.9423 5.28846 18.8269 5.17307C18.7115 5.05769 18.5641 5 18.3846 5H5.61538C5.43589 5 5.28846 5.05769 5.17308 5.17307C5.05769 5.28846 5 5.43589 5 5.61537V18.3846C5 18.5641 5.05769 18.7115 5.17308 18.8269C5.28846 18.9423 5.43589 19 5.61538 19H8.9577C8.94615 19.0551 8.93749 19.1103 8.93173 19.1654C8.92596 19.2205 8.92308 19.2756 8.92308 19.3308V20H5.62455ZM7.5 8.73078H14.9231C15.1641 8.58974 15.4179 8.48717 15.6846 8.42307C15.9513 8.35897 16.2231 8.3141 16.5 8.28845V7.73078H7.5V8.73078ZM7.5 12.5H12.0192C12.0449 12.3167 12.0792 12.1449 12.1221 11.9846C12.1651 11.8244 12.2148 11.6628 12.2712 11.5H7.5V12.5ZM7.5 16.2692H10.2962C10.4667 16.1321 10.6433 16.0019 10.826 15.8788C11.0087 15.7558 11.1955 15.6506 11.3866 15.5635V15.2692H7.5V16.2692ZM5 19V5V8.65578V8.25V19Z" fill="black"/>
</g>
</svg>
