<svg width="24" height="24" viewBox="0 0 24 24" fill="none" xmlns="http://www.w3.org/2000/svg">
<mask id="mask0_1337_7172" style="mask-type:alpha" maskUnits="userSpaceOnUse" x="0" y="0" width="24" height="24">
<rect width="24" height="24" fill="#D9D9D9"/>
</mask>
<g mask="url(#mask0_1337_7172)">
<path d="M12.0769 19C10.1227 19 8.46753 18.3222 7.11128 16.9665C5.75503 15.6109 5.0769 13.9564 5.0769 12.0031C5.0769 10.0497 5.75503 8.39423 7.11128 7.03653C8.46753 5.67884 10.1227 5 12.0769 5C13.2654 5 14.3782 5.28237 15.4154 5.8471C16.4525 6.41185 17.2884 7.19999 17.9231 8.21152V5H18.9231V10.2308H13.6923V9.23078H17.3923C16.8718 8.23334 16.1394 7.44552 15.1952 6.8673C14.2509 6.2891 13.2115 6 12.0769 6C10.4102 6 8.99357 6.58333 7.8269 7.75C6.66024 8.91667 6.0769 10.3333 6.0769 12C6.0769 13.6667 6.66024 15.0833 7.8269 16.25C8.99357 17.4167 10.4102 18 12.0769 18C13.3602 18 14.5186 17.6333 15.5519 16.9C16.5852 16.1667 17.3102 15.2 17.7269 14H18.7885C18.3474 15.4974 17.5096 16.7051 16.275 17.6231C15.0404 18.541 13.641 19 12.0769 19Z" fill="black"/>
</g>
</svg>
