<svg width="24" height="24" viewBox="0 0 24 24" fill="none" xmlns="http://www.w3.org/2000/svg">
<mask id="mask0_1424_6638" style="mask-type:alpha" maskUnits="userSpaceOnUse" x="0" y="0" width="24" height="24">
<rect width="24" height="24" fill="#D9D9D9"/>
</mask>
<g mask="url(#mask0_1424_6638)">
<path d="M6.5 13.5H13.5V12.5H6.5V13.5ZM6.5 10.5H17.5V9.5H6.5V10.5ZM6.5 7.5H17.5V6.5H6.5V7.5ZM3 20.0769V4.61537C3 4.15512 3.15417 3.77083 3.4625 3.4625C3.77083 3.15417 4.15513 3 4.61538 3H19.3846C19.8449 3 20.2292 3.15417 20.5375 3.4625C20.8458 3.77083 21 4.15512 21 4.61537V15.3846C21 15.8449 20.8458 16.2292 20.5375 16.5375C20.2292 16.8458 19.8449 17 19.3846 17H6.07693L3 20.0769ZM5.65 16H19.3846C19.5385 16 19.6795 15.9359 19.8077 15.8077C19.9359 15.6795 20 15.5385 20 15.3846V4.61537C20 4.46154 19.9359 4.32052 19.8077 4.1923C19.6795 4.0641 19.5385 4 19.3846 4H4.61538C4.46154 4 4.32052 4.0641 4.1923 4.1923C4.0641 4.32052 4 4.46154 4 4.61537V17.6442L5.65 16Z" fill="black"/>
</g>
</svg>
