<svg width="24" height="24" viewBox="0 0 24 24" fill="none" xmlns="http://www.w3.org/2000/svg">
<mask id="mask0_1337_7145" style="mask-type:alpha" maskUnits="userSpaceOnUse" x="0" y="0" width="24" height="24">
<rect width="24" height="24" fill="#D9D9D9"/>
</mask>
<g mask="url(#mask0_1337_7145)">
<path d="M12 19.6538L11.2423 18.9692C9.61025 17.4782 8.26025 16.2019 7.1923 15.1404C6.12435 14.0788 5.2814 13.1426 4.66345 12.3317C4.0455 11.5208 3.61378 10.7872 3.36828 10.1308C3.12276 9.47435 3 8.81409 3 8.14999C3 6.87819 3.43205 5.81024 4.29615 4.94614C5.16025 4.08204 6.2282 3.64999 7.5 3.64999C8.37948 3.64999 9.20448 3.87499 9.975 4.32499C10.7455 4.77499 11.4205 5.42948 12 6.28844C12.5795 5.42948 13.2545 4.77499 14.025 4.32499C14.7955 3.87499 15.6205 3.64999 16.5 3.64999C17.7718 3.64999 18.8398 4.08204 19.7038 4.94614C20.5679 5.81024 21 6.87819 21 8.14999C21 8.81409 20.8772 9.47435 20.6317 10.1308C20.3862 10.7872 19.9545 11.5208 19.3365 12.3317C18.7186 13.1426 17.8789 14.0788 16.8173 15.1404C15.7558 16.2019 14.4026 17.4782 12.7577 18.9692L12 19.6538ZM12 18.3C13.6 16.8538 14.9167 15.6151 15.95 14.5836C16.9833 13.5522 17.8 12.6574 18.4 11.899C19 11.1407 19.4167 10.4689 19.65 9.88364C19.8833 9.29839 20 8.72051 20 8.14999C20 7.14999 19.6667 6.31666 19 5.64999C18.3333 4.98333 17.5 4.64999 16.5 4.64999C15.7038 4.64999 14.9692 4.87724 14.2962 5.33172C13.6231 5.7862 13.0205 6.4705 12.4885 7.38462H11.5115C10.9667 6.45769 10.3609 5.77019 9.69423 5.32212C9.02756 4.87404 8.29615 4.64999 7.5 4.64999C6.51282 4.64999 5.68269 4.98333 5.00962 5.64999C4.33654 6.31666 4 7.14999 4 8.14999C4 8.72051 4.11667 9.29839 4.35 9.88364C4.58333 10.4689 5 11.1407 5.6 11.899C6.2 12.6574 7.01667 13.549 8.05 14.574C9.08333 15.599 10.4 16.841 12 18.3Z" fill="black"/>
</g>
</svg>
