<svg width="24" height="24" viewBox="0 0 24 24" fill="none" xmlns="http://www.w3.org/2000/svg">
<mask id="mask0_1254_3055" style="mask-type:alpha" maskUnits="userSpaceOnUse" x="0" y="0" width="24" height="24">
<rect width="24" height="24" fill="#D9D9D9"/>
</mask>
<g mask="url(#mask0_1254_3055)">
<path d="M3.61538 19.7693C3.16794 19.7693 2.78686 19.6119 2.47213 19.2971C2.15738 18.9824 2 18.6013 2 18.1538V7.07693H3V18.1538C3 18.3333 3.05769 18.4808 3.17307 18.5962C3.28846 18.7115 3.43589 18.7692 3.61538 18.7692H19V19.7693H3.61538ZM6.61538 16.7692C6.16794 16.7692 5.78686 16.6119 5.47212 16.2971C5.15737 15.9824 5 15.6013 5 15.1538V4.61537C5 4.16794 5.15737 3.78685 5.47212 3.4721C5.78686 3.15737 6.16794 3 6.61538 3H11.5769L13.5769 5H20.3846C20.8321 5 21.2132 5.15737 21.5279 5.4721C21.8426 5.78685 22 6.16794 22 6.61537V15.1538C22 15.6013 21.8426 15.9824 21.5279 16.2971C21.2132 16.6119 20.8321 16.7692 20.3846 16.7692H6.61538ZM6.61538 15.7692H20.3846C20.5641 15.7692 20.7115 15.7115 20.8269 15.5962C20.9423 15.4808 21 15.3333 21 15.1538V6.61537C21 6.43589 20.9423 6.28846 20.8269 6.17307C20.7115 6.05769 20.5641 6 20.3846 6H13.175L11.175 4H6.61538C6.43589 4 6.28846 4.05769 6.17308 4.17307C6.05769 4.28846 6 4.43589 6 4.61537V15.1538C6 15.3333 6.05769 15.4808 6.17308 15.5962C6.28846 15.7115 6.43589 15.7692 6.61538 15.7692Z" fill="black"/>
</g>
</svg>
