<svg width="24" height="24" viewBox="0 0 24 24" fill="none" xmlns="http://www.w3.org/2000/svg">
<path d="M19.8349 19.0194L16.3439 15.5272C17.3842 14.3064 18.0044 12.7255 18.0044 11.0044C18.0044 7.13196 14.8734 4 11.0022 4C7.13098 4 4 7.12195 4 10.9944C4 14.8668 7.13098 17.9987 11.0022 17.9987C12.7327 17.9987 14.3032 17.3684 15.5236 16.3377L19.0147 19.8299C19.1247 19.94 19.2748 20 19.4248 20C19.5749 20 19.7149 19.94 19.8349 19.8299C20.055 19.6098 20.055 19.2395 19.8349 19.0194ZM11.0022 16.848C7.77118 16.848 5.15036 14.2264 5.15036 10.9944C5.15036 7.76235 7.77118 5.14071 11.0022 5.14071C14.2332 5.14071 16.854 7.76235 16.854 10.9944C16.854 14.2264 14.2332 16.848 11.0022 16.848Z" fill="black"/>
</svg>
