<svg width="24" height="24" viewBox="0 0 24 24" fill="none" xmlns="http://www.w3.org/2000/svg">
<mask id="mask0_1193_8265" style="mask-type:alpha" maskUnits="userSpaceOnUse" x="0" y="0" width="24" height="24">
<rect width="24" height="24" fill="#D9D9D9"/>
</mask>
<g mask="url(#mask0_1193_8265)">
<path d="M20.7154 21.4231L18.1692 18.8962C17.8667 19.0872 17.5424 19.242 17.1965 19.3606C16.8505 19.4792 16.4902 19.5385 16.1154 19.5385C15.1731 19.5385 14.367 19.2035 13.6971 18.5337C13.0272 17.8638 12.6923 17.0577 12.6923 16.1154C12.6923 15.1731 13.0272 14.367 13.6971 13.6971C14.367 13.0273 15.1731 12.6923 16.1154 12.6923C17.0577 12.6923 17.8638 13.0273 18.5337 13.6971C19.2035 14.367 19.5385 15.1731 19.5385 16.1154C19.5385 16.4846 19.4856 16.8468 19.3798 17.2019C19.274 17.5571 19.1064 17.8795 18.8769 18.1692L21.4231 20.7154L20.7154 21.4231ZM16.1111 18.5385C16.7883 18.5385 17.3622 18.3047 17.8327 17.837C18.3032 17.3694 18.5385 16.797 18.5385 16.1197C18.5385 15.4425 18.3047 14.8686 17.837 14.3981C17.3694 13.9276 16.797 13.6923 16.1197 13.6923C15.4425 13.6923 14.8686 13.9261 14.3981 14.3938C13.9276 14.8614 13.6923 15.4338 13.6923 16.1111C13.6923 16.7883 13.9261 17.3622 14.3938 17.8327C14.8614 18.3032 15.4338 18.5385 16.1111 18.5385ZM20 10.6923H19V5.61539C19 5.46155 18.9359 5.32053 18.8077 5.19231C18.6795 5.06411 18.5385 5.00001 18.3846 5.00001H16V7.23079H8V5.00001H5.61538C5.46154 5.00001 5.32052 5.06411 5.1923 5.19231C5.0641 5.32053 5 5.46155 5 5.61539V18.3846C5 18.5385 5.0641 18.6795 5.1923 18.8077C5.32052 18.9359 5.46154 19 5.61538 19H10.5V20H5.61538C5.17114 20 4.79086 19.8418 4.47453 19.5255C4.15818 19.2092 4 18.8289 4 18.3846V5.61539C4 5.17115 4.15818 4.79087 4.47453 4.47454C4.79086 4.15819 5.17114 4.00001 5.61538 4.00001H10.2519C10.3455 3.60898 10.5532 3.28045 10.875 3.01444C11.1968 2.7484 11.5718 2.61539 12 2.61539C12.4359 2.61539 12.8138 2.7484 13.1337 3.01444C13.4535 3.28045 13.6603 3.60898 13.7538 4.00001H18.3846C18.8289 4.00001 19.2091 4.15819 19.5255 4.47454C19.8418 4.79087 20 5.17115 20 5.61539V10.6923ZM12.0034 5.23079C12.2332 5.23079 12.4247 5.15305 12.5779 4.99759C12.7311 4.84214 12.8077 4.64951 12.8077 4.41971C12.8077 4.18991 12.73 3.99841 12.5745 3.84521C12.4191 3.692 12.2264 3.61539 11.9966 3.61539C11.7668 3.61539 11.5753 3.69312 11.4221 3.84859C11.2689 4.00404 11.1923 4.19666 11.1923 4.42646C11.1923 4.65626 11.27 4.84776 11.4255 5.00096C11.5809 5.15418 11.7736 5.23079 12.0034 5.23079Z" fill="black"/>
</g>
</svg>
