<svg width="24" height="24" viewBox="0 0 24 24" fill="none" xmlns="http://www.w3.org/2000/svg">
<mask id="mask0_1760_7539" style="mask-type:alpha" maskUnits="userSpaceOnUse" x="0" y="0" width="24" height="24">
<rect width="24" height="24" fill="#D9D9D9"/>
</mask>
<g mask="url(#mask0_1760_7539)">
<path d="M11.5 15.577V6.927L9.16925 9.25775L8.4615 8.5385L12 5L15.5385 8.5385L14.8307 9.25775L12.5 6.927V15.577H11.5ZM6.6155 19C6.15517 19 5.77083 18.8458 5.4625 18.5375C5.15417 18.2292 5 17.8448 5 17.3845V14.9615H6V17.3845C6 17.5385 6.06408 17.6796 6.19225 17.8077C6.32042 17.9359 6.4615 18 6.6155 18H17.3845C17.5385 18 17.6796 17.9359 17.8077 17.8077C17.9359 17.6796 18 17.5385 18 17.3845V14.9615H19V17.3845C19 17.8448 18.8458 18.2292 18.5375 18.5375C18.2292 18.8458 17.8448 19 17.3845 19H6.6155Z" fill="black"/>
</g>
</svg>
