<svg width="24" height="24" viewBox="0 0 24 24" fill="none" xmlns="http://www.w3.org/2000/svg">
<mask id="mask0_1977_4173" style="mask-type:alpha" maskUnits="userSpaceOnUse" x="0" y="0" width="24" height="24">
<rect width="24" height="24" fill="#D9D9D9"/>
</mask>
<g mask="url(#mask0_1977_4173)">
<path d="M12.0045 15.1538C13.0207 15.1538 13.8829 14.7981 14.5913 14.0868C15.2996 13.3754 15.6538 12.5117 15.6538 11.4955C15.6538 10.4793 15.2981 9.61708 14.5868 8.90875C13.8754 8.20042 13.0117 7.84625 11.9955 7.84625C10.9794 7.84625 10.1171 8.20192 9.40878 8.91325C8.70044 9.62458 8.34628 10.4883 8.34628 11.5045C8.34628 12.5207 8.70194 13.3829 9.41328 14.0913C10.1246 14.7996 10.9884 15.1538 12.0045 15.1538ZM12 14.2C11.25 14.2 10.6125 13.9375 10.0875 13.4125C9.56253 12.8875 9.30003 12.25 9.30003 11.5C9.30003 10.75 9.56253 10.1125 10.0875 9.5875C10.6125 9.0625 11.25 8.8 12 8.8C12.75 8.8 13.3875 9.0625 13.9125 9.5875C14.4375 10.1125 14.7 10.75 14.7 11.5C14.7 12.25 14.4375 12.8875 13.9125 13.4125C13.3875 13.9375 12.75 14.2 12 14.2ZM12.0028 18C9.83678 18 7.86278 17.4106 6.08078 16.2317C4.29878 15.0529 2.96419 13.4757 2.07703 11.5C2.96419 9.52433 4.29786 7.94708 6.07803 6.76825C7.85819 5.58942 9.83128 5 11.9973 5C14.1633 5 16.1373 5.58942 17.9193 6.76825C19.7013 7.94708 21.0359 9.52433 21.923 11.5C21.0359 13.4757 19.7022 15.0529 17.922 16.2317C16.1419 17.4106 14.1688 18 12.0028 18ZM12 17C13.8834 17 15.6125 16.5042 17.1875 15.5125C18.7625 14.5208 19.9667 13.1833 20.8 11.5C19.9667 9.81667 18.7625 8.47917 17.1875 7.4875C15.6125 6.49583 13.8834 6 12 6C10.1167 6 8.38753 6.49583 6.81253 7.4875C5.23753 8.47917 4.03336 9.81667 3.20003 11.5C4.03336 13.1833 5.23753 14.5208 6.81253 15.5125C8.38753 16.5042 10.1167 17 12 17Z" fill="black"/>
</g>
</svg>
