<svg width="24" height="24" viewBox="0 0 24 24" fill="none" xmlns="http://www.w3.org/2000/svg">
<mask id="mask0_1337_7152" style="mask-type:alpha" maskUnits="userSpaceOnUse" x="0" y="0" width="24" height="24">
<rect width="24" height="24" fill="#D9D9D9"/>
</mask>
<g mask="url(#mask0_1337_7152)">
<path d="M15.4461 12.6461L14.65 11.85C14.8 10.9769 14.5525 10.2211 13.9077 9.58269C13.2628 8.94422 12.5102 8.69999 11.65 8.84999L10.8538 8.05384C11.0218 7.98461 11.1971 7.93268 11.3798 7.89806C11.5625 7.86345 11.7692 7.84614 12 7.84614C13.0192 7.84614 13.883 8.20031 14.5913 8.90864C15.2997 9.61697 15.6538 10.4808 15.6538 11.5C15.6538 11.7308 15.6365 11.9439 15.6019 12.1394C15.5673 12.3349 15.5154 12.5038 15.4461 12.6461ZM18.6077 15.7192L17.85 15.05C18.4833 14.5667 19.0458 14.0375 19.5375 13.4625C20.0291 12.8875 20.45 12.2333 20.8 11.5C19.9666 9.81666 18.7708 8.47916 17.2125 7.48749C15.6541 6.49582 13.9166 5.99999 12 5.99999C11.5166 5.99999 11.0416 6.03332 10.575 6.09999C10.1083 6.16666 9.64998 6.26666 9.19998 6.39999L8.4192 5.61921C8.99997 5.39998 9.591 5.24196 10.1923 5.14516C10.7936 5.04838 11.3961 4.99999 12 4.99999C14.1705 4.99999 16.1558 5.59647 17.9558 6.78942C19.7558 7.98237 21.0782 9.55256 21.9231 11.5C21.5654 12.3038 21.1125 13.0593 20.5644 13.7663C20.0163 14.4734 19.3641 15.1243 18.6077 15.7192ZM19.7231 21.1385L15.8308 17.2577C15.3884 17.4538 14.8394 17.6266 14.1836 17.776C13.5279 17.9253 12.8 18 12 18C9.81665 18 7.83139 17.4035 6.0442 16.2106C4.25702 15.0176 2.93459 13.4474 2.0769 11.5C2.46535 10.6167 2.97753 9.78941 3.61343 9.01826C4.24933 8.24711 4.92818 7.6 5.64998 7.07692L2.8615 4.27692L3.5692 3.56921L20.4308 20.4308L19.7231 21.1385ZM6.35765 7.78461C5.78459 8.1923 5.1987 8.72819 4.59998 9.39229C4.00126 10.0564 3.5346 10.759 3.19998 11.5C4.03331 13.1833 5.22915 14.5208 6.78748 15.5125C8.34581 16.5042 10.0833 17 12 17C12.5769 17 13.1583 16.9439 13.7442 16.8317C14.3301 16.7195 14.7705 16.6064 15.0654 16.4923L13.4346 14.85C13.2769 14.9385 13.057 15.0112 12.775 15.0683C12.4929 15.1253 12.2346 15.1538 12 15.1538C10.9807 15.1538 10.117 14.7997 9.40863 14.0913C8.7003 13.383 8.34613 12.5192 8.34613 11.5C8.34613 11.2782 8.37465 11.0295 8.4317 10.7538C8.48876 10.4782 8.56151 10.2487 8.64998 10.0654L6.35765 7.78461Z" fill="black"/>
</g>
</svg>
