<svg width="24" height="24" viewBox="0 0 24 24" fill="none" xmlns="http://www.w3.org/2000/svg">
<mask id="mask0_1249_2905" style="mask-type:alpha" maskUnits="userSpaceOnUse" x="0" y="0" width="24" height="24">
<rect width="24" height="24" fill="#D9D9D9"/>
</mask>
<g mask="url(#mask0_1249_2905)">
<path d="M9.38463 8.38463V7.38463H17.6154V8.38463H9.38463ZM9.38463 11.1538V10.1539H17.6154V11.1538H9.38463ZM11.8462 21H6C5.4359 21 4.96154 20.8077 4.57692 20.4231C4.19231 20.0385 4 19.5641 4 19V16.2308H7V3H20V10.8904C19.8205 10.8955 19.6497 10.9144 19.4875 10.9471C19.3253 10.9798 19.1628 11.0263 19 11.0865V4H8V16.2308H13.3462L12.3462 17.2308H5V19C5 19.2833 5.09583 19.5208 5.2875 19.7125C5.47917 19.9042 5.71667 20 6 20H11.8462V21ZM14.2308 21V18.7904L19.5635 13.4827C19.6622 13.384 19.7648 13.3173 19.8712 13.2827C19.9776 13.2481 20.084 13.2308 20.1904 13.2308C20.3006 13.2308 20.4122 13.2523 20.525 13.2952C20.6378 13.3382 20.7372 13.4026 20.8231 13.4885L21.7481 14.4327C21.8301 14.5314 21.8926 14.634 21.9356 14.7404C21.9785 14.8468 22 14.9532 22 15.0596C22 15.166 21.9795 15.2734 21.9385 15.3817C21.8974 15.4901 21.834 15.5936 21.7481 15.6923L16.4404 21H14.2308ZM15.1154 20.1154H16.0654L19.5327 16.6423L19.0635 16.1673L18.6077 15.6789L15.1154 19.1654V20.1154ZM19.0635 16.1673L18.6077 15.6789L19.5327 16.6423L19.0635 16.1673Z" fill="black"/>
</g>
</svg>
